<?xml version="1.0" encoding="utf-8"?>
<!-- Generator: Adobe Illustrator 16.2.0, SVG Export Plug-In . SVG Version: 6.00 Build 0)  -->
<!DOCTYPE svg PUBLIC "-//W3C//DTD SVG 1.1//EN" "http://www.w3.org/Graphics/SVG/1.1/DTD/svg11.dtd">
<svg version="1.1" xmlns="http://www.w3.org/2000/svg" xmlns:xlink="http://www.w3.org/1999/xlink" x="0px" y="0px" width="252px"
	 height="252px" viewBox="0 0 252 252" enable-background="new 0 0 252 252" xml:space="preserve">
<g id="Layer_1" display="none">
	<g>
		<path display="inline" fill="none" stroke="#254096" stroke-miterlimit="10" d="M104.313,75.32
			c8.31-10.052,24.722,1.812,32.11,1.528c7.957,1.136,23.051-3.367,25.074-5.897"/>
		<path display="inline" fill="none" stroke="#254096" stroke-miterlimit="10" d="M46.805,71.235
			c9.662,4.831,17.296,6.946,26.888,5.506c9.069-1.36,25.642-10.625,30.974-1.136"/>
	</g>
	<g>
		<path display="inline" fill="none" stroke="#254096" stroke-width="1.381" stroke-miterlimit="10" d="M104.598,120.786
			c8.31-10.053,24.722,1.812,32.109,1.527c7.957,1.136,23.052-3.366,25.076-5.897"/>
		<path display="inline" fill="none" stroke="#254096" stroke-width="1.402" stroke-miterlimit="10" d="M47.09,116.7
			c9.661,4.831,17.296,6.946,26.887,5.507c9.07-1.36,25.643-10.625,30.975-1.136"/>
	</g>
	<g>
		<path display="inline" fill="none" stroke="#283F96" stroke-width="1.381" stroke-miterlimit="10" d="M104.313,127.186
			c8.31-10.053,24.722,1.811,32.11,1.527c7.957,1.137,23.051-3.367,25.074-5.897"/>
		<path display="inline" fill="none" stroke="#283F96" stroke-width="1.402" stroke-miterlimit="10" d="M46.805,123.1
			c9.662,4.831,17.296,6.945,26.888,5.506c9.069-1.359,25.642-10.625,30.974-1.135"/>
	</g>
	<rect x="47.824" y="78.896" display="inline" fill="none" width="107.413" height="34.952"/>
	<text transform="matrix(1 0 0 1 54.2041 93.2324)" display="inline"><tspan x="0" y="0" font-family="'LoveYaLikeASister'" font-size="14">Booked For </tspan><tspan x="7.796" y="16.572" font-family="'LoveYaLikeASister'" font-size="14">Learning</tspan></text>
	<rect x="38.446" y="130.613" display="inline" fill="none" width="127.304" height="9.094"/>
	<text transform="matrix(1 0 0 1 47.7793 138.3438)" display="inline"><tspan x="0" y="0" font-family="'Duality'" font-size="10">A Literacy Education Company</tspan><tspan x="108.737" y="0" font-family="'DraftingTable'" font-size="12"> </tspan></text>
</g>
<g id="Layer_2">
	<g>
		<path fill="none" stroke="#254096" stroke-width="1.402" stroke-miterlimit="10" d="M104.396,74.229c0,0,3.127-2.714,6.354-3.317
			c2.875-0.538,5.38-0.589,9.167,0.587c8.583,2.667,15.333,5.083,24,4.5c5.131-0.345,9.668-1.913,13.417-3.667
			c1.289-0.603,3.565-1.879,4.583-1.417c0.916,0.417-5.967,4.048-11,5.417c-3.962,1.077-7.004,1.473-11.5,1.167
			c-4.438-0.302-8.865-1.508-11.5-2.167c-4.667-1.167-9.998-3.501-14-3.583c-4.083-0.083-7.902,3.34-9.167,3.5
			C103.104,75.458,103.188,74.438,104.396,74.229z"/>
		<path fill="none" stroke="#254096" stroke-width="1.402" stroke-miterlimit="10" d="M104.396,74.229c0,0-3.208-2.604-6.313-3.313
			c-2.502-0.571-5.38-0.589-9.167,0.587c-8.583,2.667-15.333,5.083-24,4.5c-5.131-0.345-9.668-1.913-13.417-3.667
			c-1.289-0.603-3.565-1.879-4.583-1.417c-0.916,0.417,5.967,4.048,11,5.417c3.962,1.077,7.004,1.473,11.5,1.167
			c4.438-0.302,8.865-1.508,11.5-2.167c4.667-1.167,9.998-3.501,14-3.583c4.083-0.083,7.893,3.54,9.167,3.5
			C104.208,75.25,104.958,74.25,104.396,74.229z"/>
	</g>
	<g>
		<path fill="none" stroke="#254096" stroke-width="1.402" stroke-miterlimit="10" d="M104.814,119.976c0,0,3.146-2.763,6.354-3.317
			c3.333-0.575,5.38-0.589,9.167,0.587c8.583,2.667,15.333,5.083,24,4.5c5.131-0.345,9.668-1.913,13.417-3.667
			c1.289-0.603,3.565-1.879,4.583-1.417c0.916,0.417-5.967,4.048-11,5.417c-3.962,1.077-7.004,1.473-11.5,1.167
			c-4.438-0.302-8.865-1.508-11.5-2.167c-4.667-1.167-9.998-3.501-14-3.583c-4.083-0.083-7.902,3.34-9.167,3.5
			C103.522,121.205,103.605,120.184,104.814,119.976z"/>
		<path fill="none" stroke="#254096" stroke-width="1.402" stroke-miterlimit="10" d="M104.814,119.976c0,0-3.189-2.288-6.313-3.313
			c-2.438-0.8-5.38-0.589-9.167,0.587c-8.583,2.667-15.333,5.083-24,4.5c-5.131-0.345-9.668-1.913-13.417-3.667
			c-1.289-0.603-3.565-1.879-4.583-1.417c-0.916,0.417,5.967,4.048,11,5.417c3.962,1.077,7.004,1.473,11.5,1.167
			c4.438-0.302,8.865-1.508,11.5-2.167c4.667-1.167,9.998-3.501,14-3.583c4.083-0.083,7.893,3.54,9.167,3.5
			C104.626,120.996,105.376,119.996,104.814,119.976z"/>
	</g>
	<g>
		<path fill="none" stroke="#254096" stroke-width="1.402" stroke-miterlimit="10" d="M104.314,126.809c0,0,3.188-2.563,6.354-3.317
			c2.497-0.595,5.38-0.589,9.167,0.587c8.583,2.667,15.333,5.083,24,4.5c5.131-0.346,9.668-1.913,13.417-3.667
			c1.289-0.603,3.565-1.879,4.583-1.417c0.916,0.417-5.967,4.048-11,5.417c-3.962,1.077-7.004,1.473-11.5,1.167
			c-4.438-0.303-8.865-1.508-11.5-2.167c-4.667-1.167-9.998-3.501-14-3.583c-4.083-0.083-7.902,3.34-9.167,3.5
			C103.022,128.038,103.105,127.018,104.314,126.809z"/>
		<path fill="none" stroke="#254096" stroke-width="1.402" stroke-miterlimit="10" d="M104.314,126.809c0,0-2.751-2.434-6.313-3.313
			c-2.492-0.615-5.38-0.589-9.167,0.587c-8.583,2.667-15.333,5.083-24,4.5c-5.131-0.346-9.668-1.913-13.417-3.667
			c-1.289-0.603-3.565-1.879-4.583-1.417c-0.916,0.417,5.967,4.048,11,5.417c3.962,1.077,7.004,1.473,11.5,1.167
			c4.438-0.303,8.865-1.508,11.5-2.167c4.667-1.167,9.998-3.501,14-3.583c4.083-0.083,7.893,3.54,9.167,3.5
			C104.126,127.83,104.876,126.83,104.314,126.809z"/>
	</g>
	<rect x="38.446" y="130.613" fill="none" width="127.304" height="9.094"/>
	<text transform="matrix(1 0 0 1 47.7793 138.3438)"><tspan x="0" y="0" font-family="'Duality'" font-size="10">A Literacy Education Company</tspan><tspan x="108.737" y="0" font-family="'DraftingTable'" font-size="12"> </tspan></text>
	<rect x="47.824" y="78.896" fill="none" width="107.413" height="34.952"/>
	<text transform="matrix(1 0 0 1 54.2041 93.2324)"><tspan x="0" y="0" font-family="'LoveYaLikeASister'" font-size="14">Booked For </tspan><tspan x="7.796" y="16.572" font-family="'LoveYaLikeASister'" font-size="14">Learning</tspan></text>
</g>
</svg>
