<?xml version="1.0" encoding="utf-8"?>
<!-- Generator: Adobe Illustrator 16.2.0, SVG Export Plug-In . SVG Version: 6.00 Build 0)  -->
<!DOCTYPE svg PUBLIC "-//W3C//DTD SVG 1.1//EN" "http://www.w3.org/Graphics/SVG/1.1/DTD/svg11.dtd">
<svg version="1.1" xmlns="http://www.w3.org/2000/svg" xmlns:xlink="http://www.w3.org/1999/xlink" x="0px" y="0px" width="360px"
	 height="360px" viewBox="0 0 360 360" enable-background="new 0 0 360 360" xml:space="preserve">
<g id="Layer_3">
	<path fill="#E68C24" stroke="#000000" stroke-width="2" stroke-miterlimit="10" d="M360,167c0,85.604-79.917,155-178.5,155
		S0,251.604,0,166C0,80.396,82.917,12,181.5,12S360,81.396,360,167z"/>
</g>
<g id="Text_2">
	<ellipse fill="none" cx="183.5" cy="164.004" rx="144" ry="88"/>
	<text transform="matrix(0.9262 -0.569 0.5234 0.8521 60.2485 114.9414)" fill="#40342A" font-family="'Duvall'" font-size="56">H</text>
	<text transform="matrix(1.0382 -0.3219 0.2962 0.9551 101.0161 90.8789)" fill="#40342A" font-family="'Duvall'" font-size="56">o</text>
	<text transform="matrix(1.0749 -0.1621 0.1491 0.9888 134.5342 80.7261)" fill="#40342A" font-family="'Duvall'" font-size="56">f</text>
	<text transform="matrix(1.0866 -0.0313 0.0288 0.9996 162.0962 76.5205)" fill="#40342A" font-family="'Duvall'" font-size="56">f</text>
	<text transform="matrix(1.0732 0.173 -0.1591 0.9873 189.5234 73.9434)" fill="#40342A" font-family="'Duvall'" font-size="56">m</text>
	<text transform="matrix(1.0004 0.4252 -0.3911 0.9203 248.7295 84.5273)" fill="#40342A" font-family="'Duvall'" font-size="56">a</text>
	<text transform="matrix(0.8576 0.6679 -0.6145 0.7889 280.7891 97.2139)" fill="#40342A" font-family="'Duvall'" font-size="56">n</text>
	<rect x="86.507" y="102" fill="none" width="205.5" height="71"/>
	<text transform="matrix(1.087 0 0 1 86.5059 145.4551)" fill="#40342A" font-family="'Duvall'" font-size="56">Music</text>
</g>
<g id="Layer_1">
	<path id="BackgroundUpper" fill="#EDC41B" d="M41.159,149.762c-5.67-6.023-7.831,73.628,0,76.671
		c7.833,3.046,19.259-30.726,47.026-32.112c27.765-1.387,183.461-1.732,187.258-1.289c3.803,0.443-30.662-16.083-40.594-13.858
		c-8.078-0.528-118.502-0.824-132.216-1.136C59.564,180.482,45.552,157.738,41.159,149.762z"/>
	<path id="BackgroundLower" fill="#EDC41B" d="M308.968,193.529c-9.604,1.588-197.332-0.485-204.765,0
		c-7.433,0.488-54.155,40.922-2.8,52.303c51.354,11.381,140.174,7.471,150.229,5.375c10.053-2.096,54.705-9.295,35.285-46.674
		c-9.244-3.875-16.686,0.087-18.762-1.898c0.273,2.068,16.568,21.029,4.736,27.856c-12.445,13.989-141.564,18.88-154.737,9.292
		c-24.917-5.266-43.059-15.99-7.163-36.024c36.84-10.769,137.527-2.616,147.154-1.888c9.625,0.729,47.969,3.67,50.822,4.09
		c2.852,0.418,9.365,7.102,13.51,5.941c4.145-1.159,4.477-8.977,3.822-13.047c-0.654-4.071-2.016-9.223-5.596-9.244
		C317.128,189.588,312.854,192.89,308.968,193.529z"/>
	<path id="OutlineUpper" fill="none" stroke="#030303" stroke-width="2" stroke-miterlimit="10" d="M267.276,203.24
		c29.367,32.422-9.383,39.27-81.072,41.084c-69.58,1.76-120.913-11.544-81.058-37.825c28.85-19.021,200.884,0,204.41-0.539
		c3.525-0.542,9.396,6.483,12.922,5.942c3.523-0.54,6.463-18.373,0-21.613c-6.461-3.242-8.813,2.701-13.51,3.24
		c-1.291,0.15-201.598-0.846-209.692-0.539c-33.482,1.081-49.34,26.479-56.39,33.502c-7.047,7.025-12.332-76.73,0-76.73
		c5.876,22.695,36.417,27.559,48.166,28.098c11.749,0.543,133.415-0.006,142.147,1.082c19.326,2.408,40.561,10.574,42.244,14.09"/>
	<path id="Outlinelowr" fill="none" stroke="#040404" stroke-width="2" stroke-miterlimit="10" d="M102.479,192.99
		c-74.007,55.443,35.888,61.303,70.217,60.52c14.269-0.326,148.29,12.082,114.222-48.977"/>
	<g id="Button1">
		<path fill="#EDC41B" stroke="#010101" stroke-width="2" stroke-miterlimit="10" d="M137.259,166.861
			c0,1.474,1.805,2.775,4.559,3.554c1.708,0.485,3.782,0.77,6.017,0.77c5.836,0,10.571-1.935,10.571-4.323
			c0-2.387-4.734-4.322-10.571-4.322C141.992,162.539,137.259,164.475,137.259,166.861z"/>
		<path fill="#EDC41B" stroke="#010101" stroke-width="2" stroke-miterlimit="10" d="M142.742,176.948c0-3.241,0-5.764,0-5.764
			h10.182v5.764"/>
	</g>
	<g id="Button2">
		<path fill="#EDC41B" stroke="#010101" stroke-width="2" stroke-miterlimit="10" d="M166.239,166.861
			c0,1.474,1.803,2.775,4.558,3.554c1.706,0.485,3.78,0.77,6.015,0.77c5.838,0,10.574-1.935,10.574-4.323
			c0-2.387-4.736-4.322-10.574-4.322C170.97,162.539,166.239,164.475,166.239,166.861z"/>
		<path fill="#EDC41B" stroke="#010101" stroke-width="2" stroke-miterlimit="10" d="M171.721,176.948c0-3.241,0-5.764,0-5.764
			h10.18v5.764"/>
	</g>
	<g id="Button3">
		<path fill="#EDC41B" stroke="#010101" stroke-width="2" stroke-miterlimit="10" d="M193.253,166.861
			c0,1.474,1.803,2.775,4.557,3.554c1.709,0.485,3.781,0.77,6.016,0.77c5.844,0,10.576-1.935,10.576-4.323
			c0-2.387-4.732-4.322-10.576-4.322C197.991,162.539,193.253,164.475,193.253,166.861z"/>
		<path fill="#EDC41B" stroke="#010101" stroke-width="2" stroke-miterlimit="10" d="M198.739,176.948c0-3.241,0-5.764,0-5.764
			h10.18v5.764"/>
	</g>
	<rect x="118.512" y="207" fill="none" width="142.495" height="23"/>
	<text transform="matrix(1.087 0 0 1 118.5103 224.9131)" fill="#40342A" font-family="'HoboStd'" font-size="21">Since 1913</text>
</g>
<g id="Text" display="none">
	<rect x="9.879" y="220.469" display="inline" fill="none" width="344.25" height="60.199"/>
	
		<text transform="matrix(1.087 0 0 1 14.8687 267.6113)" display="inline" fill="#41352B" font-family="'Duvall'" font-size="60.7502">Music Co</text>
	<rect x="99.582" y="168.161" display="inline" fill="none" width="155.651" height="23.777"/>
	<text transform="matrix(1.087 0 0 1 110.0068 188.7852)" display="inline"><tspan x="0" y="0" fill="#41352B" font-family="'Duvall'" font-size="21">Since </tspan><tspan x="73.939" y="0" fill="#41352B" font-family="'Duvall'" font-size="26.5782">1913</tspan></text>
	<rect x="-72.647" y="57.98" display="inline" fill="none" width="505.054" height="60.751"/>
	<text transform="matrix(1.087 0 0 1 25.8193 105.1211)" display="inline"><tspan x="0" y="0" fill="#41352B" font-family="'Duvall'" font-size="60.7502">Hoffman</tspan><tspan x="283.458" y="0" fill="#191919" font-family="'Gabriola'" font-size="60.7502"> </tspan></text>
</g>
</svg>
